{
  "accessors": [
    {
      "bufferView": 2,
      "componentType": 5126,
      "count": 14616,
      "max": [
        0.2624779939651489,
        0.3970566689968109,
        0.2668176591396332
      ],
      "min": [
        -0.2634008824825287,
        -0.3829246163368225,
        -0.26254844665527344
      ],
      "type": "VEC3"
    },
    {
      "bufferView": 2,
      "byteOffset": 175392,
      "componentType": 5126,
      "count": 14616,
      "max": [
        0.9997784495353699,
        0.9999995827674866,
        0.9998506307601929
      ],
      "min": [
        -0.9999478459358215,
        -0.9486174583435059,
        -0.9999732971191406
      ],
      "type": "VEC3"
    },
    {
      "bufferView": 1,
      "componentType": 5126,
      "count": 14616,
      "max": [
        0.9997901320457458,
        0.9997557401657104
      ],
      "min": [
        9.386434612679295e-06,
        9.709596633911133e-05
      ],
      "type": "VEC2"
    },
    {
      "bufferView": 0,
      "componentType": 5125,
      "count": 75684,
      "type": "SCALAR"
    }
  ],
  "asset": {
    "extras": {
      "author": "Jackmcm (https://sketchfab.com/Jackmcm)",
      "license": "CC-BY-4.0 (http://creativecommons.org/licenses/by/4.0/)",
      "source": "https://sketchfab.com/3d-models/evil-cone-bd41ecc23835416bafea042d6a01a07b",
      "title": "Evil Cone."
    },
    "generator": "Sketchfab-12.68.0",
    "version": "2.0"
  },
  "bufferViews": [
    {
      "buffer": 0,
      "byteLength": 302736,
      "name": "floatBufferViews",
      "target": 34963
    },
    {
      "buffer": 0,
      "byteLength": 116928,
      "byteOffset": 302736,
      "byteStride": 8,
      "name": "floatBufferViews",
      "target": 34962
    },
    {
      "buffer": 0,
      "byteLength": 350784,
      "byteOffset": 419664,
      "byteStride": 12,
      "name": "floatBufferViews",
      "target": 34962
    }
  ],
  "buffers": [
    {
      "byteLength": 770448,
      "uri": "cone.bin"
    }
  ],
  "images": [
    {
      "uri": "conetex/Material_0_baseColor.jpeg"
    },
    {
      "uri": "conetex/Material_0_metallicRoughness.png"
    }
  ],
  "materials": [
    {
      "doubleSided": true,
      "emissiveFactor": [
        0.44271260845508886,
        0.44271260845508886,
        0.44271260845508886
      ],
      "emissiveTexture": {
        "index": 0
      },
      "name": "Material_0",
      "pbrMetallicRoughness": {
        "baseColorTexture": {
          "index": 0
        },
        "metallicFactor": 0.0,
        "metallicRoughnessTexture": {
          "index": 1
        }
      }
    }
  ],
  "meshes": [
    {
      "name": "Node 75684_Material 0_0",
      "primitives": [
        {
          "attributes": {
            "NORMAL": 1,
            "POSITION": 0,
            "TEXCOORD_0": 2
          },
          "indices": 3,
          "material": 0,
          "mode": 4
        }
      ]
    }
  ],
  "nodes": [
    {
      "children": [
        1
      ],
      "matrix": [
        1.0,
        0.0,
        0.0,
        0.0,
        0.0,
        2.220446049250313e-16,
        -1.0,
        0.0,
        0.0,
        1.0,
        2.220446049250313e-16,
        0.0,
        0.0,
        0.0,
        0.0,
        1.0
      ],
      "name": "Sketchfab_model"
    },
    {
      "children": [
        2
      ],
      "matrix": [
        1.0,
        0.0,
        0.0,
        0.0,
        0.0,
        0.0,
        1.0,
        0.0,
        0.0,
        -1.0,
        0.0,
        0.0,
        0.0,
        0.0,
        0.0,
        1.0
      ],
      "name": "ef621a72429e434a8f9d01261d3fc119.fbx"
    },
    {
      "children": [
        3
      ],
      "name": "RootNode"
    },
    {
      "children": [
        4
      ],
      "name": "Node 75684"
    },
    {
      "mesh": 0,
      "name": "Node 75684_Material 0_0"
    }
  ],
  "samplers": [
    {
      "magFilter": 9729,
      "minFilter": 9987,
      "wrapS": 10497,
      "wrapT": 10497
    }
  ],
  "scene": 0,
  "scenes": [
    {
      "name": "Sketchfab_Scene",
      "nodes": [
        0
      ]
    }
  ],
  "textures": [
    {
      "sampler": 0,
      "source": 0
    },
    {
      "sampler": 0,
      "source": 1
    }
  ]
}
