{
  "accessors": [
    {
      "bufferView": 2,
      "componentType": 5126,
      "count": 52,
      "max": [
        13.267815589904785,
        0.5,
        3.847124008249381e-12
      ],
      "min": [
        -13.260924339294434,
        -0.5,
        -7.054234280046145e-11
      ],
      "type": "VEC3"
    },
    {
      "bufferView": 2,
      "byteOffset": 624,
      "componentType": 5126,
      "count": 52,
      "max": [
        2.6867591484958098e-11,
        0.0,
        1.0
      ],
      "min": [
        0.0,
        0.0,
        1.0
      ],
      "type": "VEC3"
    },
    {
      "bufferView": 1,
      "componentType": 5126,
      "count": 52,
      "max": [
        1.0,
        1.0
      ],
      "min": [
        0.0,
        0.0
      ],
      "type": "VEC2"
    },
    {
      "bufferView": 0,
      "componentType": 5125,
      "count": 78,
      "type": "SCALAR"
    },
    {
      "bufferView": 2,
      "byteOffset": 1248,
      "componentType": 5126,
      "count": 16016,
      "max": [
        548.4493408203125,
        26.893869400024414,
        43.561492919921875
      ],
      "min": [
        -545.3467407226563,
        -29.260337829589844,
        12.386756896972656
      ],
      "type": "VEC3"
    },
    {
      "bufferView": 2,
      "byteOffset": 193440,
      "componentType": 5126,
      "count": 16016,
      "max": [
        0.8354578614234924,
        1.0,
        0.9998002648353577
      ],
      "min": [
        -0.8356345891952515,
        -1.0,
        -0.9998967051506042
      ],
      "type": "VEC3"
    },
    {
      "bufferView": 1,
      "byteOffset": 416,
      "componentType": 5126,
      "count": 16016,
      "max": [
        0.8521509766578674,
        0.6866933107376099
      ],
      "min": [
        0.20809999108314514,
        0.19849447906017303
      ],
      "type": "VEC2"
    },
    {
      "bufferView": 1,
      "byteOffset": 128544,
      "componentType": 5126,
      "count": 16016,
      "max": [
        0.0,
        0.0
      ],
      "min": [
        0.0,
        0.0
      ],
      "type": "VEC2"
    },
    {
      "bufferView": 0,
      "byteOffset": 312,
      "componentType": 5125,
      "count": 37596,
      "type": "SCALAR"
    },
    {
      "bufferView": 2,
      "byteOffset": 385632,
      "componentType": 5126,
      "count": 1404,
      "max": [
        549.4049072265625,
        16.324682235717773,
        70.0843505859375
      ],
      "min": [
        -503.1952819824219,
        14.404170989990234,
        69.8559799194336
      ],
      "type": "VEC3"
    },
    {
      "bufferView": 2,
      "byteOffset": 402480,
      "componentType": 5126,
      "count": 1404,
      "max": [
        0.815338134765625,
        0.7974821925163269,
        -0.5741628408432007
      ],
      "min": [
        -0.8172982335090637,
        -0.773220956325531,
        -0.9999414682388306
      ],
      "type": "VEC3"
    },
    {
      "bufferView": 1,
      "byteOffset": 256672,
      "componentType": 5126,
      "count": 1404,
      "max": [
        0.0,
        0.0
      ],
      "min": [
        0.0,
        0.0
      ],
      "type": "VEC2"
    },
    {
      "bufferView": 1,
      "byteOffset": 267904,
      "componentType": 5126,
      "count": 1404,
      "max": [
        0.34672701358795166,
        0.9254410266876221
      ],
      "min": [
        0.3075009882450104,
        0.8428469896316528
      ],
      "type": "VEC2"
    },
    {
      "bufferView": 0,
      "byteOffset": 150696,
      "componentType": 5125,
      "count": 5472,
      "type": "SCALAR"
    },
    {
      "bufferView": 2,
      "byteOffset": 419328,
      "componentType": 5126,
      "count": 13080,
      "max": [
        559.6063232421875,
        27.078811645507813,
        70.91288757324219
      ],
      "min": [
        -505.1631164550781,
        -28.96813201904297,
        28.158172607421875
      ],
      "type": "VEC3"
    },
    {
      "bufferView": 2,
      "byteOffset": 576288,
      "componentType": 5126,
      "count": 13080,
      "max": [
        0.9987225532531738,
        0.999846875667572,
        0.9994977116584778
      ],
      "min": [
        -0.9980828166007996,
        -0.9998485445976257,
        -0.9995130896568298
      ],
      "type": "VEC3"
    },
    {
      "bufferView": 1,
      "byteOffset": 279136,
      "componentType": 5126,
      "count": 13080,
      "max": [
        13.516424179077148,
        4.071946144104004
      ],
      "min": [
        -12.495878219604492,
        -3.1853959560394287
      ],
      "type": "VEC2"
    },
    {
      "bufferView": 1,
      "byteOffset": 383776,
      "componentType": 5126,
      "count": 13080,
      "max": [
        0.8167129755020142,
        1.2880439758300781
      ],
      "min": [
        0.16051499545574188,
        -0.007973909378051758
      ],
      "type": "VEC2"
    },
    {
      "bufferView": 0,
      "byteOffset": 172584,
      "componentType": 5125,
      "count": 43200,
      "type": "SCALAR"
    },
    {
      "bufferView": 2,
      "byteOffset": 733248,
      "componentType": 5126,
      "count": 1497,
      "max": [
        558.9815673828125,
        -14.15216064453125,
        69.11708068847656
      ],
      "min": [
        -505.0640563964844,
        -16.53567886352539,
        68.87593841552734
      ],
      "type": "VEC3"
    },
    {
      "bufferView": 2,
      "byteOffset": 751212,
      "componentType": 5126,
      "count": 1497,
      "max": [
        0.745735228061676,
        0.7332457900047302,
        -0.6624414324760437
      ],
      "min": [
        -0.745531439781189,
        -0.7024732828140259,
        -0.9999996423721313
      ],
      "type": "VEC3"
    },
    {
      "bufferView": 1,
      "byteOffset": 488416,
      "componentType": 5126,
      "count": 1497,
      "max": [
        0.0,
        0.0
      ],
      "min": [
        0.0,
        0.0
      ],
      "type": "VEC2"
    },
    {
      "bufferView": 1,
      "byteOffset": 500392,
      "componentType": 5126,
      "count": 1497,
      "max": [
        0.34672701358795166,
        0.9254410266876221
      ],
      "min": [
        0.3075009882450104,
        0.8428469896316528
      ],
      "type": "VEC2"
    },
    {
      "bufferView": 0,
      "byteOffset": 345384,
      "componentType": 5125,
      "count": 5472,
      "type": "SCALAR"
    },
    {
      "bufferView": 2,
      "byteOffset": 769176,
      "componentType": 5126,
      "count": 6860,
      "max": [
        546.8194580078125,
        29.2000732421875,
        36.70433807373047
      ],
      "min": [
        -545.91162109375,
        -29.73309326171875,
        -137.1000518798828
      ],
      "type": "VEC3"
    },
    {
      "bufferView": 2,
      "byteOffset": 851496,
      "componentType": 5126,
      "count": 6860,
      "max": [
        0.9998239874839783,
        0.9998953342437744,
        0.9994968175888062
      ],
      "min": [
        -0.9998238682746887,
        -0.9998953342437744,
        -0.9994968175888062
      ],
      "type": "VEC3"
    },
    {
      "bufferView": 1,
      "byteOffset": 512368,
      "componentType": 5126,
      "count": 6860,
      "max": [
        13.346941947937012,
        13.288856506347656
      ],
      "min": [
        -12.346941947937012,
        -12.293209075927734
      ],
      "type": "VEC2"
    },
    {
      "bufferView": 1,
      "byteOffset": 567248,
      "componentType": 5126,
      "count": 6860,
      "max": [
        0.0,
        0.0
      ],
      "min": [
        0.0,
        0.0
      ],
      "type": "VEC2"
    },
    {
      "bufferView": 0,
      "byteOffset": 367272,
      "componentType": 5125,
      "count": 11388,
      "type": "SCALAR"
    }
  ],
  "asset": {
    "extras": {
      "author": "PropShop™ (https://sketchfab.com/syedabbas0815)",
      "license": "CC-BY-4.0 (http://creativecommons.org/licenses/by/4.0/)",
      "source": "https://sketchfab.com/3d-models/overpass-315e5c4768b9421f8a5103b5001f82b4",
      "title": "OVERPASS"
    },
    "generator": "Sketchfab-16.24.0",
    "version": "2.0"
  },
  "bufferViews": [
    {
      "buffer": 0,
      "byteLength": 412824,
      "name": "floatBufferViews",
      "target": 34963
    },
    {
      "buffer": 0,
      "byteLength": 622128,
      "byteOffset": 412824,
      "byteStride": 8,
      "name": "floatBufferViews",
      "target": 34962
    },
    {
      "buffer": 0,
      "byteLength": 933816,
      "byteOffset": 1034952,
      "byteStride": 12,
      "name": "floatBufferViews",
      "target": 34962
    }
  ],
  "buffers": [
    {
      "byteLength": 1968768,
      "uri": "pull.bin"
    }
  ],
  "extensionsUsed": [
    "KHR_materials_specular"
  ],
  "images": [
    {
      "uri": "pulltex/road.001_baseColor.png"
    },
    {
      "uri": "pulltex/Material.005_baseColor.jpeg"
    },
    {
      "uri": "pulltex/Material.006_baseColor.jpeg"
    },
    {
      "uri": "pulltex/Material_baseColor.jpeg"
    }
  ],
  "materials": [
    {
      "doubleSided": true,
      "extensions": {
        "KHR_materials_specular": {
          "specularColorFactor": [
            1.0,
            1.0,
            1.0
          ],
          "specularFactor": 0.0
        }
      },
      "name": "road.001",
      "pbrMetallicRoughness": {
        "baseColorTexture": {
          "index": 0
        },
        "roughnessFactor": 0.9649522741402641
      }
    },
    {
      "doubleSided": true,
      "name": "Material.005",
      "pbrMetallicRoughness": {
        "baseColorTexture": {
          "index": 1
        },
        "metallicFactor": 0.0,
        "roughnessFactor": 0.8211145618000169
      }
    },
    {
      "doubleSided": true,
      "name": "Lights.003",
      "pbrMetallicRoughness": {
        "metallicFactor": 0.0,
        "roughnessFactor": 0.7763932022500211
      }
    },
    {
      "doubleSided": true,
      "name": "Material.006",
      "pbrMetallicRoughness": {
        "baseColorTexture": {
          "index": 2
        },
        "metallicFactor": 0.0,
        "roughnessFactor": 0.8211145618000169
      }
    },
    {
      "doubleSided": true,
      "name": "Lights.004",
      "pbrMetallicRoughness": {
        "metallicFactor": 0.0,
        "roughnessFactor": 0.7763932022500211
      }
    },
    {
      "doubleSided": true,
      "name": "Material",
      "pbrMetallicRoughness": {
        "baseColorTexture": {
          "index": 3
        },
        "metallicFactor": 0.0,
        "roughnessFactor": 0.8211145618000169
      }
    }
  ],
  "meshes": [
    {
      "name": "road_road.001_0",
      "primitives": [
        {
          "attributes": {
            "NORMAL": 1,
            "POSITION": 0,
            "TEXCOORD_0": 2
          },
          "indices": 3,
          "material": 0,
          "mode": 4
        }
      ]
    },
    {
      "name": "overpass_Material.005_0",
      "primitives": [
        {
          "attributes": {
            "NORMAL": 5,
            "POSITION": 4,
            "TEXCOORD_0": 6,
            "TEXCOORD_1": 7
          },
          "indices": 8,
          "material": 1,
          "mode": 4
        }
      ]
    },
    {
      "name": "overpass_Lights.003_0",
      "primitives": [
        {
          "attributes": {
            "NORMAL": 10,
            "POSITION": 9,
            "TEXCOORD_0": 11,
            "TEXCOORD_1": 12
          },
          "indices": 13,
          "material": 2,
          "mode": 4
        }
      ]
    },
    {
      "name": "overpass_Material.006_0",
      "primitives": [
        {
          "attributes": {
            "NORMAL": 15,
            "POSITION": 14,
            "TEXCOORD_0": 16,
            "TEXCOORD_1": 17
          },
          "indices": 18,
          "material": 3,
          "mode": 4
        }
      ]
    },
    {
      "name": "overpass_Lights.004_0",
      "primitives": [
        {
          "attributes": {
            "NORMAL": 20,
            "POSITION": 19,
            "TEXCOORD_0": 21,
            "TEXCOORD_1": 22
          },
          "indices": 23,
          "material": 4,
          "mode": 4
        }
      ]
    },
    {
      "name": "overpass.001_Material_0",
      "primitives": [
        {
          "attributes": {
            "NORMAL": 25,
            "POSITION": 24,
            "TEXCOORD_0": 26,
            "TEXCOORD_1": 27
          },
          "indices": 28,
          "material": 5,
          "mode": 4
        }
      ]
    }
  ],
  "nodes": [
    {
      "children": [
        1
      ],
      "matrix": [
        1.0,
        0.0,
        0.0,
        0.0,
        0.0,
        2.220446049250313e-16,
        -1.0,
        0.0,
        0.0,
        1.0,
        2.220446049250313e-16,
        0.0,
        0.0,
        0.0,
        0.0,
        1.0
      ],
      "name": "Sketchfab_model"
    },
    {
      "children": [
        2
      ],
      "matrix": [
        0.009999999776482582,
        0.0,
        0.0,
        0.0,
        0.0,
        0.0,
        0.009999999776482582,
        0.0,
        0.0,
        -0.009999999776482582,
        0.0,
        0.0,
        0.0,
        0.0,
        0.0,
        1.0
      ],
      "name": "OVERPASS.fbx"
    },
    {
      "children": [
        3,
        5,
        10
      ],
      "name": "RootNode"
    },
    {
      "children": [
        4
      ],
      "matrix": [
        -1.3776889784140368e-05,
        2.0259398406932347e-14,
        182.48043823242133,
        -0.0,
        -368.3689330928533,
        1.8835927757152655,
        -2.7811080699121866e-05,
        -0.0,
        2.155117035052201,
        421.4701676114424,
        1.6270678871804317e-07,
        -0.0,
        -16.858476638793945,
        14.667706489562988,
        2023.7178955078125,
        1.0
      ],
      "name": "road"
    },
    {
      "mesh": 0,
      "name": "road_road.001_0"
    },
    {
      "children": [
        6,
        7,
        8,
        9
      ],
      "matrix": [
        8.667663341689047e-07,
        0.0,
        4.45164012908927,
        0.0,
        8.585544160598996,
        -0.1715251206075629,
        -1.6716671670635965e-06,
        0.0,
        0.10797199149633155,
        5.404446286445176,
        -2.102292232314373e-08,
        0.0,
        -17.215991973876953,
        -134.9901123046875,
        2027.0361328125,
        1.0
      ],
      "name": "overpass"
    },
    {
      "mesh": 1,
      "name": "overpass_Material.005_0"
    },
    {
      "mesh": 2,
      "name": "overpass_Lights.003_0"
    },
    {
      "mesh": 3,
      "name": "overpass_Material.006_0"
    },
    {
      "mesh": 4,
      "name": "overpass_Lights.004_0"
    },
    {
      "children": [
        11
      ],
      "matrix": [
        8.667663341689047e-07,
        0.0,
        4.45164012908927,
        0.0,
        8.585544160598996,
        -0.1715251206075629,
        -1.6716671670635965e-06,
        0.0,
        0.10797199149633155,
        5.404446286445176,
        -2.102292232314373e-08,
        0.0,
        -17.215991973876953,
        -134.9901123046875,
        2027.0361328125,
        1.0
      ],
      "name": "overpass.001"
    },
    {
      "mesh": 5,
      "name": "overpass.001_Material_0"
    }
  ],
  "samplers": [
    {
      "magFilter": 9729,
      "minFilter": 9987,
      "wrapS": 33071,
      "wrapT": 33071
    },
    {
      "magFilter": 9729,
      "minFilter": 9987,
      "wrapS": 10497,
      "wrapT": 10497
    }
  ],
  "scene": 0,
  "scenes": [
    {
      "name": "Sketchfab_Scene",
      "nodes": [
        0
      ]
    }
  ],
  "textures": [
    {
      "sampler": 0,
      "source": 0
    },
    {
      "sampler": 1,
      "source": 1
    },
    {
      "sampler": 1,
      "source": 2
    },
    {
      "sampler": 1,
      "source": 3
    }
  ]
}
