{
  "accessors": [
    {
      "bufferView": 2,
      "componentType": 5126,
      "count": 57180,
      "max": [
        6.452716827392578,
        7.556187152862549,
        17.67432403564453
      ],
      "min": [
        -5.722209930419922,
        -5.12464714050293,
        -0.0
      ],
      "type": "VEC3"
    },
    {
      "bufferView": 2,
      "byteOffset": 686160,
      "componentType": 5126,
      "count": 57180,
      "max": [
        0.9999927282333374,
        0.9999997615814209,
        0.9534274339675903
      ],
      "min": [
        -0.9999966621398926,
        -0.9999977350234985,
        -0.9518219828605652
      ],
      "type": "VEC3"
    },
    {
      "bufferView": 1,
      "componentType": 5126,
      "count": 57180,
      "max": [
        9.750300407409668,
        9.750300407409668
      ],
      "min": [
        -8.750300407409668,
        -8.750300407409668
      ],
      "type": "VEC2"
    },
    {
      "bufferView": 0,
      "componentType": 5125,
      "count": 218760,
      "type": "SCALAR"
    },
    {
      "bufferView": 2,
      "byteOffset": 1372320,
      "componentType": 5126,
      "count": 7704,
      "max": [
        7.795079231262207,
        8.612767219543457,
        19.267927169799805
      ],
      "min": [
        -6.90318489074707,
        -6.361354827880859,
        3.8322689533233643
      ],
      "type": "VEC3"
    },
    {
      "bufferView": 2,
      "byteOffset": 1464768,
      "componentType": 5126,
      "count": 7704,
      "max": [
        0.9995799660682678,
        0.9993865489959717,
        0.996563732624054
      ],
      "min": [
        -0.9995799660682678,
        -0.9993865489959717,
        -0.996563732624054
      ],
      "type": "VEC3"
    },
    {
      "bufferView": 1,
      "byteOffset": 457440,
      "componentType": 5126,
      "count": 7704,
      "max": [
        0.9868999719619751,
        0.9814000129699707
      ],
      "min": [
        0.008100000210106373,
        0.01850000023841858
      ],
      "type": "VEC2"
    },
    {
      "bufferView": 0,
      "byteOffset": 875040,
      "componentType": 5125,
      "count": 11556,
      "type": "SCALAR"
    }
  ],
  "asset": {
    "extras": {
      "author": "FelixBDesign (https://sketchfab.com/felix95b)",
      "license": "CC-BY-4.0 (http://creativecommons.org/licenses/by/4.0/)",
      "source": "https://sketchfab.com/3d-models/hazelnut-bush-8e8fd14f7f1546b9bcf2f5cfee5c116c",
      "title": "Hazelnut Bush"
    },
    "generator": "Sketchfab-12.68.0",
    "version": "2.0"
  },
  "bufferViews": [
    {
      "buffer": 0,
      "byteLength": 921264,
      "name": "floatBufferViews",
      "target": 34963
    },
    {
      "buffer": 0,
      "byteLength": 519072,
      "byteOffset": 921264,
      "byteStride": 8,
      "name": "floatBufferViews",
      "target": 34962
    },
    {
      "buffer": 0,
      "byteLength": 1557216,
      "byteOffset": 1440336,
      "byteStride": 12,
      "name": "floatBufferViews",
      "target": 34962
    }
  ],
  "buffers": [
    {
      "byteLength": 2997552,
      "uri": "tree1.bin"
    }
  ],
  "images": [
    {
      "uri": "t1tex/None_baseColor.png"
    },
    {
      "uri": "t1tex/None_Hazelnut.png_baseColor.png"
    }
  ],
  "materials": [
    {
      "doubleSided": true,
      "name": "None",
      "pbrMetallicRoughness": {
        "baseColorTexture": {
          "index": 0
        },
        "metallicFactor": 0.0
      }
    },
    {
      "alphaMode": "BLEND",
      "doubleSided": true,
      "name": "None_Hazelnut.png",
      "pbrMetallicRoughness": {
        "baseColorTexture": {
          "index": 1
        },
        "metallicFactor": 0.0
      }
    }
  ],
  "meshes": [
    {
      "name": "Object_0",
      "primitives": [
        {
          "attributes": {
            "NORMAL": 1,
            "POSITION": 0,
            "TEXCOORD_0": 2
          },
          "indices": 3,
          "material": 0,
          "mode": 4
        }
      ]
    },
    {
      "name": "Object_1",
      "primitives": [
        {
          "attributes": {
            "NORMAL": 5,
            "POSITION": 4,
            "TEXCOORD_0": 6
          },
          "indices": 7,
          "material": 1,
          "mode": 4
        }
      ]
    }
  ],
  "nodes": [
    {
      "children": [
        1
      ],
      "matrix": [
        1.0,
        0.0,
        0.0,
        0.0,
        0.0,
        2.220446049250313e-16,
        -1.0,
        0.0,
        0.0,
        1.0,
        2.220446049250313e-16,
        0.0,
        0.0,
        0.0,
        0.0,
        1.0
      ],
      "name": "Sketchfab_model"
    },
    {
      "children": [
        2,
        3
      ],
      "name": "Hazelnut.obj.cleaner.materialmerger.gles"
    },
    {
      "mesh": 0,
      "name": "Object_2"
    },
    {
      "mesh": 1,
      "name": "Object_3"
    }
  ],
  "samplers": [
    {
      "magFilter": 9729,
      "minFilter": 9987,
      "wrapS": 10497,
      "wrapT": 10497
    }
  ],
  "scene": 0,
  "scenes": [
    {
      "name": "Sketchfab_Scene",
      "nodes": [
        0
      ]
    }
  ],
  "textures": [
    {
      "sampler": 0,
      "source": 0
    },
    {
      "sampler": 0,
      "source": 1
    }
  ]
}
